<svg width="578" height="648" viewBox="0 0 578 648" fill="none" xmlns="http://www.w3.org/2000/svg">
<path d="M262.33 10.2876V42.4614C262.33 76.3286 261.201 106.809 258.943 133.903C256.967 160.714 253.722 184.986 249.206 206.717C244.973 228.167 239.328 247.217 232.272 263.868C225.217 280.52 216.75 295.336 206.872 308.319L274.183 600H240.316L181.472 335.413C171.029 344.444 159.599 352.628 147.181 359.966C134.763 367.022 121.075 373.654 106.117 379.863V600H74.3667V10.2876H106.117V345.149C114.02 341.763 122.627 337.812 131.941 333.296C141.254 328.498 150.427 322.148 159.458 314.246C168.771 306.343 177.662 296.324 186.128 284.188C194.877 271.771 202.498 256.389 208.989 238.044C215.48 219.417 220.701 197.122 224.652 171.157C228.604 144.91 230.579 114.006 230.579 78.4453V10.2876H262.33ZM509.56 190.63C509.56 214.902 505.327 234.517 496.86 249.475C488.675 264.15 478.938 274.875 467.649 281.648C472.729 285.317 477.81 289.551 482.89 294.349C487.97 299.146 492.485 305.073 496.437 312.129C500.388 319.185 503.492 327.651 505.75 337.529C508.29 347.125 509.56 358.555 509.56 371.82V476.808C509.56 486.122 509.419 495.717 509.137 505.595C508.854 515.191 507.584 524.646 505.327 533.959C503.351 542.99 500.105 551.598 495.59 559.783C491.356 567.685 485.147 574.6 476.963 580.526C468.778 586.453 458.477 591.251 446.059 594.92C433.641 598.307 418.26 600 399.915 600H321.597V133.479C321.597 124.166 321.738 114.57 322.021 104.692C322.585 94.8145 323.855 85.3599 325.831 76.3286C327.806 67.2974 331.052 58.8306 335.567 50.9282C340.083 42.7437 346.292 35.688 354.194 29.7612C362.379 23.5522 372.68 18.7544 385.098 15.3677C397.798 11.981 413.321 10.2876 431.666 10.2876H509.56V190.63ZM353.348 294.772V571.636H390.602C405.842 571.636 418.824 570.366 429.549 567.826C440.556 565.286 449.587 560.912 456.643 554.703C463.98 548.494 469.343 540.168 472.729 529.726C476.116 519.283 477.81 506.16 477.81 490.355V376.053C477.81 346.702 472.447 325.817 461.723 313.399C451.28 300.981 435.476 294.772 414.309 294.772H353.348ZM414.309 266.408C436.322 266.408 452.409 259.494 462.569 245.665C472.729 231.835 477.81 211.656 477.81 185.127V38.6514H440.556C425.598 38.6514 412.615 39.9214 401.608 42.4614C390.602 45.0015 381.429 49.376 374.091 55.585C367.036 61.5117 361.814 69.6963 358.428 80.1387C355.041 90.5811 353.348 103.705 353.348 119.509V266.408H414.309Z" fill="white"/>
<path d="M262.33 10.2876H272.33V0.287598H262.33V10.2876ZM258.943 133.903L248.977 133.072L248.973 133.12L248.97 133.168L258.943 133.903ZM249.206 206.717L239.415 204.683L239.405 204.732L239.395 204.781L249.206 206.717ZM206.872 308.319L198.914 302.264L196.073 305.997L197.128 310.567L206.872 308.319ZM274.183 600V610H286.754L283.927 597.751L274.183 600ZM240.316 600L230.554 602.171L232.296 610H240.316V600ZM181.472 335.413L191.233 333.242L187.597 316.894L174.93 327.849L181.472 335.413ZM147.181 359.966L152.121 368.661L152.195 368.619L152.268 368.576L147.181 359.966ZM106.117 379.863L102.283 370.627L96.1172 373.187V379.863H106.117ZM106.117 600V610H116.117V600H106.117ZM74.3667 600H64.3667V610H74.3667V600ZM74.3667 10.2876V0.287598H64.3667V10.2876H74.3667ZM106.117 10.2876H116.117V0.287598H106.117V10.2876ZM106.117 345.149H96.1172V360.315L110.056 354.341L106.117 345.149ZM131.941 333.296L136.304 342.294L136.413 342.241L136.52 342.186L131.941 333.296ZM159.458 314.246L152.988 306.621L152.93 306.67L152.873 306.72L159.458 314.246ZM186.128 284.188L177.954 278.429L177.94 278.448L177.927 278.467L186.128 284.188ZM208.989 238.044L218.416 241.38L218.424 241.358L218.432 241.335L208.989 238.044ZM224.652 171.157L234.539 172.661L234.54 172.653L234.541 172.645L224.652 171.157ZM230.579 10.2876V0.287598H220.579V10.2876H230.579ZM252.33 10.2876V42.4614H272.33V10.2876H252.33ZM252.33 42.4614C252.33 76.1155 251.207 106.312 248.977 133.072L268.908 134.733C271.194 107.306 272.33 76.5417 272.33 42.4614H252.33ZM248.97 133.168C247.02 159.63 243.825 183.458 239.415 204.683L258.997 208.752C263.618 186.513 266.915 161.798 268.916 134.638L248.97 133.168ZM239.395 204.781C235.268 225.691 229.804 244.063 223.065 259.967L241.48 267.77C248.852 250.371 254.677 230.642 259.017 208.654L239.395 204.781ZM223.065 259.967C216.3 275.933 208.236 290.012 198.914 302.264L214.83 314.374C225.264 300.661 234.134 285.106 241.48 267.77L223.065 259.967ZM197.128 310.567L264.439 602.249L283.927 597.751L216.616 306.07L197.128 310.567ZM274.183 590H240.316V610H274.183V590ZM250.077 597.829L191.233 333.242L171.71 337.584L230.554 602.171L250.077 597.829ZM174.93 327.849C164.96 336.472 154.02 344.31 142.094 351.357L152.268 368.576C165.179 360.947 177.099 352.416 188.013 342.976L174.93 327.849ZM142.241 351.272C130.224 358.1 116.911 364.555 102.283 370.627L109.951 389.099C125.239 382.753 139.302 375.944 152.121 368.661L142.241 351.272ZM96.1172 379.863V600H116.117V379.863H96.1172ZM106.117 590H74.3667V610H106.117V590ZM84.3667 600V10.2876H64.3667V600H84.3667ZM74.3667 20.2876H106.117V0.287598H74.3667V20.2876ZM96.1172 10.2876V345.149H116.117V10.2876H96.1172ZM110.056 354.341C118.127 350.882 126.878 346.864 136.304 342.294L127.578 324.298C118.377 328.759 109.912 332.643 102.178 335.958L110.056 354.341ZM136.52 342.186C146.651 336.967 156.488 330.132 166.043 321.771L152.873 306.72C144.366 314.164 135.858 320.029 127.361 324.406L136.52 342.186ZM165.928 321.871C176.019 313.308 185.47 302.609 194.33 289.91L177.927 278.467C169.853 290.039 161.524 299.378 152.988 306.621L165.928 321.871ZM194.303 289.948C203.702 276.608 211.701 260.358 218.416 241.38L199.562 234.709C193.294 252.421 186.053 266.933 177.954 278.429L194.303 289.948ZM218.432 241.335C225.179 221.973 230.523 199.048 234.539 172.661L214.766 169.652C210.879 195.196 205.781 216.862 199.546 234.754L218.432 241.335ZM234.541 172.645C238.586 145.772 240.579 114.348 240.579 78.4453H220.579C220.579 113.663 218.621 144.047 214.764 169.668L234.541 172.645ZM240.579 78.4453V10.2876H220.579V78.4453H240.579ZM230.579 20.2876H262.33V0.287598H230.579V20.2876ZM496.86 249.475L488.157 244.549L488.142 244.576L488.126 244.604L496.86 249.475ZM467.649 281.648L462.504 273.074L449.5 280.876L461.795 289.755L467.649 281.648ZM505.75 337.529L496.001 339.758L496.039 339.924L496.083 340.088L505.75 337.529ZM509.137 505.595L519.132 505.889L519.133 505.881L509.137 505.595ZM505.327 533.959L495.608 531.603L495.582 531.712L495.558 531.822L505.327 533.959ZM495.59 559.783L486.834 554.952L486.804 555.006L486.775 555.061L495.59 559.783ZM446.059 594.92L448.69 604.568L448.792 604.54L448.893 604.51L446.059 594.92ZM321.597 600H311.597V610H321.597V600ZM322.021 104.692L312.037 104.122L312.029 104.264L312.025 104.407L322.021 104.692ZM335.567 50.9282L344.25 55.8896L344.287 55.8246L344.323 55.759L335.567 50.9282ZM354.194 29.7612L360.194 37.7612L360.216 37.7447L360.238 37.7281L354.194 29.7612ZM385.098 15.3677L382.522 5.70533L382.494 5.7126L382.467 5.72004L385.098 15.3677ZM509.56 10.2876H519.56V0.287598H509.56V10.2876ZM353.348 294.772V284.772H343.348V294.772H353.348ZM353.348 571.636H343.348V581.636H353.348V571.636ZM429.549 567.826L427.3 558.082L427.272 558.089L427.244 558.095L429.549 567.826ZM456.643 554.703L450.183 547.069L450.109 547.131L450.036 547.196L456.643 554.703ZM461.723 313.399L454.069 319.835L454.111 319.885L454.154 319.935L461.723 313.399ZM477.81 38.6514H487.81V28.6514H477.81V38.6514ZM374.091 55.585L380.523 63.242L380.537 63.2304L380.551 63.2188L374.091 55.585ZM358.428 80.1387L348.916 77.0536L358.428 80.1387ZM353.348 266.408H343.348V276.408H353.348V266.408ZM499.56 190.63C499.56 213.848 495.494 231.586 488.157 244.549L505.562 254.401C515.159 237.447 519.56 215.956 519.56 190.63H499.56ZM488.126 244.604C480.563 258.166 471.934 267.416 462.504 273.074L472.794 290.223C485.943 282.334 496.788 270.134 505.594 254.345L488.126 244.604ZM461.795 289.755C466.482 293.141 471.226 297.088 476.023 301.619L489.756 287.079C484.393 282.014 478.977 277.494 473.504 273.542L461.795 289.755ZM476.023 301.619C480.261 305.621 484.179 310.708 487.711 317.015L505.162 307.243C500.791 299.439 495.678 292.672 489.756 287.079L476.023 301.619ZM487.711 317.015C491.096 323.059 493.905 330.586 496.001 339.758L515.499 335.301C513.079 324.717 509.679 315.31 505.162 307.243L487.711 317.015ZM496.083 340.088C498.342 348.623 499.56 359.149 499.56 371.82H519.56C519.56 357.961 518.238 345.627 515.417 334.97L496.083 340.088ZM499.56 371.82V476.808H519.56V371.82H499.56ZM499.56 476.808C499.56 486.021 499.42 495.521 499.141 505.31L519.133 505.881C519.417 495.913 519.56 486.222 519.56 476.808H499.56ZM499.141 505.301C498.879 514.203 497.702 522.967 495.608 531.603L515.045 536.315C517.467 526.324 518.83 516.179 519.132 505.889L499.141 505.301ZM495.558 531.822C493.79 539.901 490.889 547.602 486.834 554.952L504.346 564.613C509.322 555.594 512.912 546.08 515.096 536.096L495.558 531.822ZM486.775 555.061C483.343 561.467 478.213 567.274 471.098 572.427L482.828 588.626C492.082 581.925 499.37 573.903 504.405 564.505L486.775 555.061ZM471.098 572.427C464.049 577.531 454.847 581.896 443.226 585.33L448.893 604.51C462.107 600.606 473.507 595.375 482.828 588.626L471.098 572.427ZM443.428 585.272C432.145 588.349 417.714 590 399.915 590V610C418.805 610 435.137 608.264 448.69 604.568L443.428 585.272ZM399.915 590H321.597V610H399.915V590ZM331.597 600V133.479H311.597V600H331.597ZM331.597 133.479C331.597 124.267 331.737 114.766 332.016 104.978L312.025 104.407C311.74 114.374 311.597 124.065 311.597 133.479H331.597ZM332.004 105.263C332.541 95.8754 333.744 86.9466 335.6 78.4656L316.062 74.1916C313.966 83.7731 312.629 93.7535 312.037 104.122L332.004 105.263ZM335.6 78.4656C337.362 70.4097 340.246 62.8971 344.25 55.8896L326.885 45.9668C321.858 54.764 318.251 64.1851 316.062 74.1916L335.6 78.4656ZM344.323 55.759C348.116 48.8838 353.359 42.8877 360.194 37.7612L348.194 21.7612C339.225 28.4883 332.05 36.6035 326.812 46.0974L344.323 55.759ZM360.238 37.7281C367.181 32.4611 376.245 28.1474 387.729 25.0153L382.467 5.72004C369.115 9.36141 357.577 14.6434 348.15 21.7943L360.238 37.7281ZM387.675 25.03C399.276 21.9362 413.876 20.2876 431.666 20.2876V0.287598C412.766 0.287598 396.32 2.02568 382.522 5.70533L387.675 25.03ZM431.666 20.2876H509.56V0.287598H431.666V20.2876ZM499.56 10.2876V190.63H519.56V10.2876H499.56ZM343.348 294.772V571.636H363.348V294.772H343.348ZM353.348 581.636H390.602V561.636H353.348V581.636ZM390.602 581.636C406.346 581.636 420.148 580.329 431.853 577.557L427.244 558.095C417.5 560.403 405.338 561.636 390.602 561.636V581.636ZM431.797 577.57C444.095 574.732 454.72 569.715 463.249 562.21L450.036 547.196C444.453 552.108 437.016 555.84 427.3 558.082L431.797 577.57ZM463.102 562.336C472.054 554.761 478.364 544.767 482.242 532.811L463.217 526.641C460.321 535.569 455.907 542.226 450.183 547.069L463.102 562.336ZM482.242 532.811C486.06 521.039 487.81 506.788 487.81 490.355H467.81C467.81 505.531 466.173 517.527 463.217 526.641L482.242 532.811ZM487.81 490.355V376.053H467.81V490.355H487.81ZM487.81 376.053C487.81 346.001 482.42 322.065 469.291 306.863L454.154 319.935C462.474 329.569 467.81 347.403 467.81 376.053H487.81ZM469.376 306.963C456.491 291.64 437.465 284.772 414.309 284.772V304.772C433.487 304.772 446.07 310.322 454.069 319.835L469.376 306.963ZM414.309 284.772H353.348V304.772H414.309V284.772ZM414.309 276.408C438.511 276.408 458.064 268.686 470.628 251.585L454.511 239.744C446.754 250.301 434.133 256.408 414.309 256.408V276.408ZM470.628 251.585C482.57 235.332 487.81 212.697 487.81 185.127H467.81C467.81 210.616 462.889 228.339 454.511 239.744L470.628 251.585ZM487.81 185.127V38.6514H467.81V185.127H487.81ZM477.81 28.6514H440.556V48.6514H477.81V28.6514ZM440.556 28.6514C425.069 28.6514 411.297 29.9627 399.36 32.7175L403.857 52.2053C413.933 49.8801 426.126 48.6514 440.556 48.6514V28.6514ZM399.36 32.7175C387.073 35.553 376.381 40.5476 367.632 47.9511L380.551 63.2188C386.477 58.2044 394.13 54.4499 403.857 52.2053L399.36 32.7175ZM367.659 47.9279C358.915 55.2735 352.769 65.1734 348.916 77.0536L367.94 83.2237C370.86 74.2192 375.157 67.7499 380.523 63.242L367.659 47.9279ZM348.916 77.0536C345.098 88.8252 343.348 103.076 343.348 119.509H363.348C363.348 104.333 364.984 92.3369 367.94 83.2237L348.916 77.0536ZM343.348 119.509V266.408H363.348V119.509H343.348ZM353.348 276.408H414.309V256.408H353.348V276.408Z" fill="white"/>
</svg>
